<svg width="200" height="142" viewBox="0 0 200 142" fill="none" xmlns="http://www.w3.org/2000/svg">
<mask id="mask0_100_155" style="mask-type:luminance" maskUnits="userSpaceOnUse" x="0" y="0" width="200" height="67">
<path d="M0 0H200V67H0V0Z" fill="white"/>
</mask>
<g mask="url(#mask0_100_155)">
<path fill-rule="evenodd" clip-rule="evenodd" d="M165.51 0.531323C164.552 0.989656 164.224 2.64591 164.302 6.63549C164.427 12.8803 165.771 17.3282 168.724 21.2397C169.115 21.7501 169.526 22.2345 170.724 23.5678C171.807 24.7761 171.776 24.6147 171.792 29.5053L171.802 33.3542L171.625 32.8334C170.203 28.6407 167.146 25.6459 163.276 24.6563C161.313 24.1563 158.724 24.2032 156.958 24.7709C152.047 26.3542 151.323 31.1876 155.885 31.9428C156.089 31.974 157.12 32.0261 158.172 32.0574C161.151 32.1459 162.495 32.3438 164.542 33.0053C166.922 33.7761 169.828 35.2709 170.698 36.172C171.24 36.7345 171.266 37.1928 171.01 41.0209C170.724 45.1876 170.714 45.5365 170.714 49.9584C170.714 54.3074 170.734 54.974 170.974 58.0886C171.135 60.2084 171.13 60.349 170.901 60.5053C170.552 60.7397 170.125 61.2345 169.75 61.8282C168.141 64.3959 168.094 64.4272 165.516 64.4115C164.667 64.4063 159.625 64.3907 154.313 64.3803C148.74 64.3647 143.75 64.3282 142.516 64.2865C141.333 64.2501 139.536 64.198 138.516 64.1615C132.125 63.9636 131.016 63.8074 130.578 63.0313C130.266 62.4688 130.25 62.0782 130.354 57.0626C130.427 53.3959 130.38 49.599 130.193 44.2136C130.078 40.9532 130.094 40.6772 130.479 39.073C131.276 35.7865 131.089 33.1095 129.896 30.672L129.568 30.0053L129.703 29.7501C129.891 29.3751 130.073 28.6355 130.401 26.9011C131.24 22.448 131.297 22.3855 134.802 22.0938C139.995 21.6563 143.938 20.7501 144.865 19.7761C145.938 18.6511 144.583 17.4063 141.286 16.4949C137.313 15.3959 134.302 15.7865 132.385 17.6459C132.01 18.0105 131.943 18.0574 131.911 17.9636C131.792 17.599 131.74 17.4844 131.578 17.2397C131.167 16.6094 130.521 16.6824 130.177 17.3907C130.115 17.5209 130.063 17.5782 130.063 17.5209C130.047 17.0574 129.313 15.4636 128.672 14.5105C125.672 10.0365 117.672 7.29174 116.219 10.2397C115.396 11.8959 116.76 15.2605 119.276 17.7813C121.068 19.5834 122.854 20.7397 126.401 22.3803C128.271 23.2449 128.63 23.5886 128.63 24.5417C128.63 25.1928 128.313 26.6876 128 27.5157L127.875 27.8438L127.354 27.1459C126.792 26.3959 126.177 25.7449 125.63 25.3334C122.464 22.9376 117.406 23.4845 116.365 26.3334C116.286 26.547 116.135 26.823 116.026 26.9532C115.911 27.0834 115.688 27.4688 115.516 27.8126C113.797 31.3438 115.104 34.4792 119.349 36.9792C121.099 38.0157 122.771 38.6563 126.083 39.573C126.557 39.7032 127.047 39.8647 127.172 39.9324L127.401 40.0574L127.396 40.4272C127.391 40.6303 127.344 41.1407 127.286 41.5626C127.057 43.2865 127.099 47.1928 127.411 53.1772C127.771 60.0574 127.589 62.573 126.688 63.3855C126.156 63.8647 125.625 63.9115 121.573 63.823C114.385 63.6615 110.229 63.9272 102.141 65.047C97.7188 65.6563 96.7917 65.7397 96.4583 65.5313C96.3958 65.4949 96.3698 65.172 96.3333 64.1251C96.3073 63.3803 96.2552 62.3699 96.2188 61.8803C96.1198 60.5261 96.2656 56.422 96.4896 54.3178C96.776 51.6042 97.2292 50.3022 98.7708 47.7397C101.26 43.599 101.474 41.224 99.75 36.724C99.0677 34.948 98 33.4324 96.651 32.3334L96.2448 32.0053L96.4375 31.3751C97.8021 26.8803 96.8646 22.5209 93.401 17.2813C92.0052 15.1772 91.349 15.3699 90.224 18.2032C89.4167 20.224 89.0156 21.8855 88.9323 23.5261L88.8958 24.2449L88.625 24.0782C85.0573 21.8907 78.8594 22.6355 78.8594 25.2501C78.8594 26.9792 81.6406 28.7605 86.7135 30.2865C87.2604 30.448 87.4271 30.5157 87.3438 30.547C85.5833 31.198 84.6198 32.1511 84.5313 33.3334C84.4427 34.4636 85.0417 35.4636 86.6563 36.8959C88.151 38.2188 88.349 38.5626 89.2604 41.3855C90.0104 43.7188 90.7552 44.9428 92.4583 46.6563C93.6563 47.8699 93.6406 47.7605 93.2604 51.1824C93.1667 52.047 92.9583 54.1355 92.8021 55.823C92.2188 62.0261 91.9583 63.5626 91.3385 64.4532C91 64.9428 90.3229 64.9897 88.5417 64.6563C80.4167 63.1199 70.2031 62.6303 64.2083 63.4845C63.5521 63.5834 62.8958 63.6511 62.75 63.6407C62.3281 63.6147 62.3229 63.5522 62.3802 61.2917C62.5313 55.4792 62.3646 53.3334 61.6198 51.6042L61.4219 51.1407L61.5365 50.922C62.1094 49.8334 62.0677 47.2449 61.4531 45.4845C60.3333 42.2709 57.7708 40.2553 54.1146 39.7084C51.9792 39.3855 48.6875 39.823 48.6875 40.4272C48.6875 40.4584 48.6042 40.4792 48.5 40.4845C47.5677 40.4897 47.3177 41.1928 47.8698 42.2553L48.1979 42.8803L48.2083 44.2032C48.2292 47.3074 49.0885 49.0157 51.3958 50.5417C52.6615 51.3751 53.7865 51.8178 56.8021 52.6615C58.7031 53.198 58.6354 53.0886 58.6927 55.5938C58.7188 56.6303 58.776 58.2865 58.8281 59.2813C58.9583 61.9688 58.9323 63.0261 58.7396 63.2188C58.6875 63.2761 58.5469 63.2449 57.0521 62.8595C54.9063 62.3074 52.7344 62.3282 48.7448 62.948C42.2917 63.948 40.6875 64.0001 34.3698 63.422C29.3594 62.9688 26.8229 62.974 25.0469 63.448L24.75 63.5261L25.026 62.7501C25.1771 62.323 25.4583 61.5417 25.651 61.0157C26.5208 58.6147 26.6719 57.3074 26.2396 55.9688C26.1042 55.5365 26.0625 55.2917 26.0417 54.7709C25.8698 50.6824 19.6615 47.5626 14.599 49.0313C13.2292 49.4272 12.2344 50.2761 12.0833 51.1824C12.0625 51.323 11.9948 51.5105 11.9323 51.5938C11.2083 52.6147 11.5573 53.7136 12.599 53.6876L13 53.6772L13.5417 54.2084C15.6927 56.3334 18 57.3855 20.474 57.3907C21.1406 57.3907 21.6667 57.422 22.0156 57.4792C22.3802 57.5417 22.7708 57.5678 23.2708 57.5522L24 57.5261V57.7709C24 58.8282 23.0625 61.7292 22.3958 62.7397C21.4479 64.1772 20.8958 64.2345 18.1719 63.1563C13.4115 61.2761 11.3021 61.2761 5.53125 63.172C3.23958 63.922 1.95833 64.2709 0.90625 64.422C0.546874 64.474 0.197918 64.5261 0.130208 64.5417C0.00520833 64.5626 0 64.5938 0 65.047V65.5313H0.151042C1.08333 65.5313 3.24479 65.0053 5.66146 64.1928C11.3333 62.2865 13.2344 62.2761 17.8438 64.1147C20.5365 65.1876 21.5104 65.1667 22.6563 64.0209C23.776 62.9011 25.0104 59.5365 24.9583 57.7292L24.9427 57.1355L25.1719 56.948L25.401 56.7657L25.4479 56.9792C25.5573 57.4688 25.4167 58.4949 25.1042 59.4688C24.9479 59.9584 23.8594 63.047 23.625 63.6511C23.2865 64.547 23.6146 64.9584 24.4323 64.672C25.6875 64.2397 26.9115 64.0834 29.026 64.0834C30.7292 64.0886 31.0833 64.1095 34.6563 64.448C39.9479 64.9532 42.8542 64.8803 47.6302 64.1303C50.8646 63.6251 51.7604 63.5105 53.1146 63.448C54.4167 63.3855 55.7969 63.5522 57.2292 63.948C58.1875 64.2084 58.2292 64.2188 58.6719 64.2188C59.8802 64.224 60.026 63.5417 59.7969 58.9115C59.75 57.9324 59.6927 56.2865 59.6667 55.2553C59.599 52.448 59.5417 52.3751 56.5781 51.547C53.9583 50.8178 52.901 50.3803 51.6927 49.5261L51.1927 49.172L51.3854 49.073C51.6667 48.9272 52.3333 48.198 52.4896 47.8647C52.8854 47.0105 52.6406 46.2136 51.7708 45.5209C51.1771 45.0417 51.1406 44.9532 51.1406 43.7449C51.1406 42.6459 51.0781 42.2501 50.8333 41.8074L50.6979 41.5678L50.849 41.5938C50.9323 41.6095 51.3073 41.6615 51.6875 41.7084C55.9948 42.2709 57.5833 43.6563 59.1146 48.1928C59.6667 49.8438 59.7917 50.1563 60.3177 51.2397C61.375 53.4167 61.599 55.2449 61.4115 60.2345C61.2865 63.4532 61.3229 63.823 61.7656 64.297C62.1302 64.6876 62.7083 64.7449 64.0833 64.5157C69.4375 63.6303 79.8125 64.0626 87.4583 65.4792C90.4896 66.047 91.25 66.0001 91.9844 65.2292C92.6771 64.5001 93.0521 63.099 93.3906 60.0105L93.4583 59.3542L93.5313 60.8334C93.6563 63.4897 93.7917 64.3699 94.1198 64.6459C94.5469 65.0001 94.9688 64.7397 95.1771 63.9949C95.2292 63.8074 95.25 63.7761 95.2552 63.8803C95.401 66.9845 95.3854 66.9792 102.172 66.0417C110.536 64.8855 114.417 64.6355 121.583 64.7917C125.974 64.8855 126.422 64.8386 127.24 64.2136C128.573 63.1876 128.792 61.073 128.375 52.9792C128.063 46.7761 128.031 43.4115 128.281 41.5626C128.495 39.9792 128.422 39.5626 127.875 39.2032C127.729 39.1095 127.594 38.974 127.578 38.9063C127.521 38.7032 127.083 38.3647 125.578 37.3699C123.469 35.974 122.188 34.922 120.516 33.2136C118.76 31.4272 118.271 30.5417 117.688 28.1511C117.542 27.5574 117.385 27.0001 117.339 26.9115C117.208 26.6876 117.427 26.2657 117.885 25.8282C119.458 24.3334 123.01 24.5105 125.115 26.1928C126.042 26.9324 126.927 28.0678 126.875 28.4532C126.786 29.0886 127.828 30.4063 128.51 30.5157C129.005 30.5938 129.771 32.7865 129.948 34.6459C130.063 35.849 129.932 37.0782 129.51 38.8282C129.12 40.448 129.099 40.7917 129.219 44.3126C129.411 50.0313 129.443 52.1147 129.391 55.5417C129.318 60.4115 129.328 62.3595 129.422 62.7709C129.646 63.7553 130.276 64.3699 131.323 64.6407C133.073 65.0886 142.385 65.3595 156.286 65.3647C160.479 65.3647 164.688 65.3699 165.63 65.3751L167.344 65.3855L167.807 65.2292C168.682 64.9376 169.349 64.3595 169.974 63.349C170.839 61.9428 171.068 61.6303 171.464 61.3126C172.115 60.797 172.156 60.5574 171.974 58.3022C171.521 52.7292 171.521 48.047 171.974 41.2501C172.328 35.8595 172.297 35.7657 169.625 34.1876C166.177 32.1563 162.813 31.2032 158.781 31.1147C155.422 31.0417 154.234 30.6876 153.943 29.672C153.297 27.4115 156.359 25.2813 160.255 25.2813C164.745 25.2865 168.37 27.7553 170.255 32.0834L170.406 32.4272L170.083 32.0574C167.188 28.7657 164.109 26.7136 161.198 26.1251C158.38 25.5574 154.63 26.5574 154.63 27.8751C154.63 28.6459 155.182 28.8907 158.828 29.7501C165.307 31.2761 168.38 32.5001 171.083 34.6199C171.995 35.3334 172.219 35.3907 172.573 35.0209L172.792 34.7917L172.766 30.0886C172.734 23.8855 172.88 24.4792 170.885 22.2657C167.984 19.0365 166.464 15.8803 165.714 11.5313C165.016 7.47924 165.141 1.85424 165.938 1.43236C166.708 1.0157 170.74 4.47403 172.781 7.29695C175.74 11.3855 176.188 14.9636 174.214 18.7344C173.068 20.9167 173.036 21.0209 173.339 21.3282C173.844 21.8282 174.344 21.3126 175.573 19.0209C177.318 15.7553 177.734 15.0834 178.646 14.0469C180.552 11.8959 182.641 11.0678 188.427 10.1667C190.786 9.80216 191.714 9.63549 192.917 9.36466C194.536 8.99487 194.865 8.92716 194.896 8.95841C195.047 9.11466 193.865 12.0574 192.714 14.3803C190.188 19.4688 187.698 21.8751 183.974 22.8334C182.104 23.3178 180.552 23.3282 177.885 22.8803C175.615 22.4949 174.828 22.6876 174.286 23.7501C173.859 24.5834 173.823 25.0626 173.854 30.099C173.88 35.0001 173.875 34.9376 174.49 35.2865C175.016 35.5834 175.396 35.4897 178 34.4167C182.339 32.6407 185.432 32.2292 188.573 33.0209C190.995 33.6303 193.26 35.099 193.974 36.5157C194.51 37.5834 194.146 38.0313 192.609 38.2084C191.464 38.3334 190.255 38.1615 185.219 37.1303C179.438 35.9428 176.62 36.0522 175.01 37.5261C173.656 38.7605 173.427 40.4428 173.802 46.547C174.005 49.9324 174.047 53.4584 173.917 56.448C173.734 60.6772 174.01 61.349 176.516 62.7709C178.276 63.7709 178.63 64.0574 179.5 65.2032C180.552 66.5834 181.073 66.7084 184.885 66.4688C189.109 66.2032 197.234 66.297 199.786 66.6407L200 66.672V65.6667L199.188 65.5938C195.943 65.3178 188.427 65.2709 184.656 65.5001C181.391 65.7032 181.083 65.6355 180.229 64.5209C179.307 63.3126 178.938 63.0209 176.849 61.8074C174.896 60.6772 174.724 60.2292 174.885 56.599C175.042 53.1199 175 50.3282 174.734 45.8334C174.375 39.6824 174.755 38.2397 176.932 37.5782C178.62 37.0626 180.813 37.2345 185.802 38.2605C190 39.1251 191.359 39.3074 192.75 39.1772C197.589 38.724 194.76 33.5782 188.839 32.0574C185.422 31.1772 182.094 31.6511 177.026 33.7397C175.958 34.1772 175.193 34.448 175.005 34.448C174.87 34.448 174.849 33.8751 174.828 30.0417C174.786 23.297 174.755 23.3647 177.656 23.849C180.208 24.2709 182.042 24.2917 183.771 23.9115C188.63 22.849 191.755 19.4845 194.969 11.8438C196.552 8.08862 196.266 7.56257 193.057 8.30737C191.526 8.65632 190.484 8.84903 188.026 9.22924C181.417 10.2449 179.104 11.4115 176.74 14.9219L176.37 15.4636V14.323C176.37 10.8751 174.745 7.57299 171.37 4.1407C168.505 1.22403 166.568 0.031323 165.51 0.531323ZM120.005 10.1407C121.208 10.3803 122.417 10.8126 123.542 11.4011C127.536 13.4949 129.484 16.5834 129.484 20.8334C129.484 22.1355 130.542 22.198 130.573 20.8959C130.578 20.7188 130.583 20.7084 130.646 20.8074C131.089 21.5105 131.807 21.0261 131.979 19.9167C132.052 19.4428 132.818 18.4688 133.526 17.948C135.151 16.7553 137.307 16.5626 140.484 17.3178C142.25 17.7397 144.229 18.6199 144.229 18.9897C144.229 19.6303 139.396 20.724 134.917 21.0938C130.708 21.4428 130.328 21.8126 129.49 26.3647C129.01 28.9324 128.953 29.1199 128.729 28.8386L128.573 28.6459L128.74 28.3126C129.443 26.922 129.823 24.2813 129.438 23.4376C129.068 22.6147 128.766 22.4115 125.714 20.9376C120.943 18.6303 118.146 15.9063 117.172 12.6094C116.521 10.4272 117.443 9.61987 120.005 10.1407ZM92.8229 18.2501C95.9167 23.2292 96.6563 26.573 95.5781 30.6563C95.4688 31.0522 95.375 31.3855 95.3646 31.3959C95.3542 31.4115 95.0833 31.297 94.7708 31.1459C94.1771 30.8595 93.1667 30.5053 92.7708 30.4376L92.5417 30.4011L92.5625 30.1511C92.6615 28.9376 91.7083 26.8959 90.3906 25.4845L89.9167 24.974L89.9219 24.0626C89.9323 22.1303 90.6667 19.3803 91.7188 17.2969L91.901 16.9428L92.0938 17.1667C92.2031 17.2917 92.5313 17.7761 92.8229 18.2501ZM131.057 18.8751C131.094 19.2553 131.089 19.2969 130.885 19.7032L130.677 20.1303L130.708 19.8178C130.786 19.1042 130.932 18.3334 130.974 18.4011C131 18.4376 131.036 18.6511 131.057 18.8751ZM84.8594 23.8647C86.2083 24.0261 87.4688 24.4897 88.5104 25.2032L88.9948 25.5365L89.0885 26.1042C89.3125 27.422 89.9896 29.2709 90.5156 30.0105L90.6354 30.1772H90.3125C89.7813 30.1772 86.1406 29.099 84.3177 28.4063C81.5 27.3282 79.6094 25.9167 79.8854 25.0886C80.1927 24.1563 82.5156 23.5834 84.8594 23.8647ZM160.995 27.1042C163.438 27.6199 165.859 29.0938 168.198 31.4845L168.542 31.8334L167.943 31.5522C165.755 30.5417 163.286 29.7709 158.828 28.724C156.672 28.2188 155.771 27.9532 155.771 27.8334C155.771 27.6355 157.438 27.0938 158.458 26.9688C158.948 26.9063 160.443 26.9845 160.995 27.1042ZM90.7969 27.7188C91.2708 28.5626 91.7865 30.1459 91.3698 29.4845C91.0469 28.9688 90.3333 27.2813 90.3438 27.047C90.349 26.9845 90.5729 27.3178 90.7969 27.7188ZM116.474 29.1615C116.714 29.823 117.188 30.7136 117.651 31.3751C117.839 31.6407 118.177 32.1199 118.396 32.4376C119.453 33.9584 121.167 35.6095 122.828 36.724C123.479 37.1563 124.755 38.1147 124.703 38.1303C124.62 38.1563 122.714 37.5001 122.016 37.2032C117.5 35.2813 115.271 32.6251 115.859 29.8647C115.948 29.448 116.224 28.5626 116.26 28.5938C116.271 28.6042 116.365 28.8595 116.474 29.1615ZM90.2083 31.3178C90.8802 31.5522 91.375 31.8282 92.1719 32.3959C92.5313 32.6563 93.3802 33.2292 94.0573 33.6772C96.4167 35.2292 97.3333 36.1147 98.0052 37.4897C98.974 39.474 98.6771 41.0574 96.8854 43.5261C95.6198 45.2709 94.974 46.3282 94.625 47.2397C94.4583 47.672 94.4635 47.672 94.2865 47.2709C94.1771 47.0001 94 46.7917 93.3177 46.1199C91.4167 44.2345 90.974 43.448 89.8333 39.8959C89.3385 38.3595 88.9167 37.672 87.8385 36.6459C86.151 35.0417 85.875 34.724 85.6354 34.1042C85.1198 32.797 86.4635 31.6095 88.8958 31.2345C89.6146 31.1251 89.651 31.1251 90.2083 31.3178ZM93.2031 31.6042C93.5 31.7032 94.0313 31.9167 94.3802 32.0834L95.0208 32.3855L95.0365 32.7553C95.0521 32.9949 95.0365 33.1147 95 33.0938C94.6979 32.9167 92.7135 31.5678 92.5781 31.448C92.5156 31.3959 92.7135 31.4428 93.2031 31.6042ZM49.8646 42.1407C50.0729 42.474 50.1719 42.9376 50.1667 43.5834L50.1615 44.1511L50.0573 43.6407C49.9583 43.1511 49.724 42.4167 49.5208 41.9428L49.4271 41.7292L49.5729 41.8282C49.6563 41.8803 49.7865 42.0209 49.8646 42.1407ZM99.7969 42.547C99.5885 44.0417 99.099 45.2501 97.8854 47.2553C97.125 48.5105 96.526 49.6928 96.2604 50.474C96.151 50.7865 96.0625 51.0157 96.0625 50.9845C96.0625 50.9532 95.9792 50.2605 95.8802 49.448C95.6302 47.4115 95.5365 47.6615 97.0781 46.1355C98.5781 44.6407 99.1563 43.8699 99.6354 42.7032C99.8281 42.2345 99.8385 42.224 99.7969 42.547ZM59.026 43.2397C60.1458 44.5261 60.849 46.3126 60.9375 48.0886L60.9688 48.6511L60.8854 48.0834C60.5677 45.8699 59.8281 44.2188 58.5313 42.8126L58.0885 42.3334L58.4479 42.6563C58.6406 42.8386 58.9063 43.099 59.026 43.2397ZM49.2396 45.3647C49.2292 45.448 49.2188 45.3803 49.2188 45.2084C49.2188 45.0365 49.2292 44.9636 49.2396 45.0522C49.2552 45.1355 49.2552 45.2761 49.2396 45.3647ZM51.026 46.1772C51.8802 46.948 51.8438 47.5886 50.9167 48.1772C50.3698 48.5209 50.3021 48.3386 50.276 46.3699L50.2552 45.2865L50.4063 45.5209C50.4896 45.6459 50.7656 45.9428 51.026 46.1772ZM19.2344 49.8438C21.4427 50.3022 23.2969 51.4011 24.2813 52.8386L24.5313 53.2032L24.2813 52.974C22.3854 51.224 20.1302 50.323 17.0833 50.099C16.276 50.0417 15.9844 50.047 14.8594 50.1355C14.349 50.1772 14.5104 50.0834 15.2656 49.9063C16.526 49.6042 17.9635 49.5782 19.2344 49.8438ZM95.0208 50.5886C95.3073 53.1303 95.224 56.0105 94.7396 60.2501C94.6667 60.8699 94.5885 61.3751 94.5677 61.3751C94.4583 61.3751 94.375 56.6042 94.4531 54.6355C94.5365 52.3959 94.7917 49.8334 94.9167 49.974C94.9375 49.9949 94.9844 50.2709 95.0208 50.5886ZM17.75 51.1563C20.9531 51.5782 23.4271 52.9792 24.7396 55.1303C25 55.5574 25 55.6303 24.7604 55.948C24.526 56.2553 24.3021 56.3542 24.026 56.2709C23.724 56.1824 22.8594 56.1824 22.1146 56.2709L21.5156 56.349L20.9427 56.1563C20.1823 55.8959 18.6875 55.1667 17.2865 54.3647C15.1979 53.1667 14.7969 52.974 13.9531 52.7605L13.4688 52.6355L13.3125 52.323C13.0417 51.7917 13.0417 51.7917 13.4115 51.599C14.3594 51.1042 16.0365 50.9324 17.75 51.1563ZM16.4271 55.0313C16.9635 55.3386 17.6042 55.698 17.8542 55.8334C18.3854 56.1147 18.3906 56.1355 17.8802 55.9324C17.1563 55.6355 15.9427 54.9376 15.5156 54.5678C15.2917 54.3751 15.2969 54.3803 16.4271 55.0313Z" fill="#F4EDE2"/>
</g>
<path d="M3.13574 109.734C3.78678 109.708 4.28158 109.629 4.61491 109.504C4.94824 109.369 5.20866 109.083 5.40658 108.65C5.59928 108.223 5.69824 107.541 5.69824 106.609V92.8169C5.69824 91.4732 5.74512 90.3898 5.84408 89.5669L3.13574 89.6711V86.9003L13.3649 86.8378C16.6566 86.8117 19.1878 87.3898 20.9691 88.5669C22.7607 89.7492 23.6566 91.6607 23.6566 94.2961C23.6566 95.9523 23.1201 97.4211 22.0524 98.7128C20.9951 99.994 19.417 100.932 17.3232 101.525V101.567C17.7503 101.734 18.1982 102.025 18.6566 102.442C19.1149 102.859 19.4951 103.327 19.8024 103.838L21.5107 106.359C22.3128 107.624 22.9899 108.499 23.5316 108.984C24.0732 109.458 24.7399 109.708 25.5316 109.734V112.109H19.5941C19.1878 111.817 18.7816 111.411 18.3649 110.879C17.9587 110.338 17.4951 109.624 16.9691 108.734L14.3024 104.4C13.7035 103.442 13.2035 102.749 12.8024 102.317H10.9274V106.171C10.9274 107.536 10.8753 108.624 10.7816 109.442C11.542 109.374 12.5628 109.338 13.8441 109.338V112.109H3.13574V109.734ZM12.6566 99.7336C14.6149 99.7336 16.0316 99.2961 16.9066 98.4211C17.7816 97.5357 18.2191 96.1607 18.2191 94.2961C18.2191 92.2961 17.7087 90.9784 16.6982 90.3378C15.6826 89.6867 14.5576 89.3586 13.3232 89.3586C12.4899 89.3586 11.8753 89.5409 11.4899 89.9003C11.1149 90.2648 10.9274 91.0253 10.9274 92.1919V99.5878C11.6357 99.6867 12.2087 99.7336 12.6566 99.7336Z" fill="#F4EDE2"/>
<path d="M57.9035 112.692C55.0129 112.692 52.6326 112.056 50.7576 110.775C48.8931 109.499 47.5285 107.869 46.6535 105.879C45.7889 103.895 45.3618 101.77 45.3618 99.5043C45.3618 97.3689 45.841 95.2908 46.7993 93.2751C47.7681 91.2647 49.2056 89.6033 51.1118 88.296C53.0129 86.9939 55.3097 86.3376 58.0077 86.3376C60.7681 86.3376 63.091 86.9939 64.966 88.296C66.8514 89.6033 68.2472 91.2647 69.1535 93.2751C70.0702 95.2908 70.5285 97.3689 70.5285 99.5043C70.5285 101.603 70.0493 103.666 69.091 105.692C68.1327 107.723 66.6952 109.395 64.7785 110.713C62.8722 112.036 60.5806 112.692 57.9035 112.692ZM58.2577 110.067C59.8097 110.067 61.0806 109.577 62.0702 108.588C63.0545 107.603 63.7629 106.353 64.1952 104.838C64.6222 103.327 64.841 101.754 64.841 100.129C64.841 96.7126 64.242 93.9991 63.0493 91.9835C61.8514 89.9731 60.0754 88.9626 57.716 88.9626C56.1327 88.9626 54.8306 89.4731 53.8201 90.4835C52.8201 91.4835 52.1014 92.7543 51.6743 94.296C51.242 95.8272 51.0285 97.4158 51.0285 99.0668C51.0285 100.749 51.2629 102.431 51.7368 104.108C52.2212 105.791 53.0076 107.207 54.091 108.358C55.1847 109.499 56.5754 110.067 58.2577 110.067Z" fill="#F4EDE2"/>
<path d="M103.659 112.692C100.769 112.692 98.3885 112.056 96.5135 110.775C94.6489 109.499 93.2843 107.869 92.4093 105.879C91.5448 103.895 91.1177 101.77 91.1177 99.5043C91.1177 97.3689 91.5968 95.2908 92.5552 93.2751C93.5239 91.2647 94.9614 89.6033 96.8677 88.296C98.7687 86.9939 101.066 86.3376 103.764 86.3376C106.524 86.3376 108.847 86.9939 110.722 88.296C112.607 89.6033 114.003 91.2647 114.909 93.2751C115.826 95.2908 116.284 97.3689 116.284 99.5043C116.284 101.603 115.805 103.666 114.847 105.692C113.889 107.723 112.451 109.395 110.534 110.713C108.628 112.036 106.336 112.692 103.659 112.692ZM104.014 110.067C105.566 110.067 106.836 109.577 107.826 108.588C108.81 107.603 109.519 106.353 109.951 104.838C110.378 103.327 110.597 101.754 110.597 100.129C110.597 96.7126 109.998 93.9991 108.805 91.9835C107.607 89.9731 105.831 88.9626 103.472 88.9626C101.889 88.9626 100.586 89.4731 99.576 90.4835C98.576 91.4835 97.8573 92.7543 97.4302 94.296C96.9979 95.8272 96.7843 97.4158 96.7843 99.0668C96.7843 100.749 97.0187 102.431 97.4927 104.108C97.9771 105.791 98.7635 107.207 99.8468 108.358C100.941 109.499 102.331 110.067 104.014 110.067Z" fill="#F4EDE2"/>
<path d="M142.103 109.733C142.754 109.707 143.249 109.629 143.582 109.504C143.915 109.369 144.176 109.082 144.374 108.65C144.566 108.223 144.665 107.541 144.665 106.608V89.3585H142.999C141.582 89.3897 140.488 89.8689 139.728 90.796C138.962 91.7283 138.582 93.1449 138.582 95.046H136.207L136.374 86.9001H158.186L158.415 95.046H156.04C156.04 93.1449 155.645 91.7074 154.853 90.7335C154.072 89.7647 152.988 89.2908 151.603 89.3168H149.874V106.213C149.874 107.812 149.822 108.89 149.728 109.442C150.52 109.374 151.483 109.338 152.624 109.338V112.108H142.103V109.733Z" fill="#F4EDE2"/>
<path d="M188.138 112.692C187.164 112.692 186.117 112.53 184.992 112.213C183.877 111.911 182.856 111.478 181.929 110.921H181.888L181.992 112.442H179.221V104.004H181.596C181.898 105.978 182.648 107.483 183.846 108.525C185.054 109.567 186.523 110.088 188.263 110.088C189.513 110.088 190.539 109.765 191.346 109.108C192.164 108.442 192.575 107.645 192.575 106.713C192.575 105.952 192.304 105.291 191.763 104.733C191.221 104.181 190.617 103.749 189.95 103.442C189.294 103.124 188.252 102.681 186.825 102.108C184.169 101.056 182.143 99.8533 180.742 98.5043C179.336 97.1606 178.638 95.3949 178.638 93.2126C178.638 92.1033 178.914 91.0251 179.471 89.9835C180.023 88.9418 180.929 88.0772 182.179 87.3793C183.44 86.6866 185.075 86.3376 187.075 86.3376C188.101 86.3376 189.179 86.4939 190.304 86.796C191.429 87.0876 192.367 87.5147 193.117 88.0668H193.159L193.013 86.5876H195.825V94.9626H193.45C193.127 93.0043 192.435 91.5147 191.367 90.4835C190.294 89.4418 188.935 88.921 187.284 88.921C186.2 88.921 185.268 89.2231 184.492 89.8168C183.711 90.4001 183.325 91.1397 183.325 92.0251C183.325 93.0824 183.768 93.9731 184.659 94.6918C185.544 95.4001 187.044 96.1918 189.159 97.0668C191.575 98.0251 193.544 99.1397 195.075 100.4C196.601 101.65 197.367 103.327 197.367 105.421C197.367 106.838 196.976 108.103 196.2 109.213C195.435 110.312 194.356 111.166 192.971 111.775C191.58 112.385 189.971 112.692 188.138 112.692Z" fill="#F4EDE2"/>
<path d="M36.8735 138.508C37.0246 138.498 37.186 138.518 37.3527 138.57C37.5194 138.628 37.6496 138.758 37.7485 138.966C37.9152 139.3 37.8423 139.628 37.5402 139.945C37.3579 140.143 37.1496 140.3 36.9152 140.425C35.8579 140.925 34.7121 141.055 33.4777 140.82C32.7381 140.669 32.259 140.19 32.0402 139.383C31.8996 138.883 31.8423 138.378 31.8735 137.862C31.8996 137.352 31.9412 136.862 31.9985 136.404C32.0506 136.029 32.1131 135.654 32.186 135.279C32.2537 134.904 32.3215 134.529 32.3944 134.154C32.4204 133.977 32.4465 133.8 32.4777 133.633C32.5037 133.456 32.5298 133.274 32.561 133.091L32.5819 133.05C32.5923 132.998 32.6027 132.94 32.6027 132.883C32.6131 132.831 32.6131 132.774 32.6027 132.716C32.5037 132.274 32.6965 131.919 33.186 131.654C33.2694 131.602 33.3579 131.56 33.4569 131.529C33.5506 131.487 33.6496 131.456 33.7485 131.425L34.2694 131.362C34.6548 131.31 35.0454 131.258 35.436 131.216C35.8215 131.164 36.2069 131.123 36.5819 131.091C36.6235 131.091 36.6548 131.091 36.686 131.091C37.0715 131.091 37.384 131.206 37.6235 131.425C37.8319 131.623 37.9412 131.857 37.9569 132.133C37.9569 132.44 37.8371 132.695 37.6027 132.904C37.3631 133.112 37.0454 133.232 36.6444 133.258C36.3944 133.274 36.134 133.279 35.8735 133.279C35.6235 133.268 35.3735 133.253 35.1235 133.237L34.811 133.216C34.6548 133.206 34.5298 133.206 34.436 133.216C34.3527 133.216 34.2798 133.248 34.2277 133.3C34.1548 133.357 34.1131 133.435 34.1027 133.529C34.1027 133.612 34.1027 133.732 34.1027 133.883C34.1027 134.039 34.1027 134.19 34.1027 134.341C34.1027 134.498 34.1027 134.654 34.1027 134.82V135.425L34.2694 135.404C34.3527 135.393 34.436 135.378 34.5194 135.362C34.6131 135.336 34.7069 135.315 34.7902 135.3C34.9829 135.258 35.1704 135.227 35.3527 135.195C35.5298 135.169 35.7121 135.143 35.8944 135.112C36.3527 135.07 36.7798 135.102 37.186 135.195C37.5298 135.268 37.7173 135.482 37.7485 135.841C37.759 136.05 37.7121 136.216 37.6027 136.341C37.5037 136.456 37.3944 136.539 37.2694 136.591C36.9881 136.748 36.7121 136.836 36.436 136.862C36.1704 136.878 35.8996 136.893 35.6235 136.904C35.3579 136.919 35.0871 136.935 34.811 136.945C34.6965 136.945 34.5819 136.956 34.4569 136.966C34.3319 136.966 34.2121 136.966 34.1027 136.966L33.9777 136.987V137.112C33.9777 137.169 33.9777 137.232 33.9777 137.3C33.9777 137.357 33.9777 137.414 33.9777 137.466C33.9777 137.633 33.9777 137.81 33.9777 137.987C33.9777 138.169 33.9777 138.341 33.9777 138.508C33.9777 138.565 33.9985 138.623 34.0402 138.675C34.0819 138.716 34.1079 138.753 34.1235 138.779C34.1652 138.794 34.2069 138.82 34.2485 138.862C34.3006 138.893 34.3579 138.904 34.4152 138.904C34.8735 138.862 35.3787 138.8 35.936 138.716C36.0037 138.706 36.0715 138.69 36.1444 138.675C36.2121 138.649 36.2798 138.628 36.3527 138.612C36.4465 138.586 36.5402 138.565 36.6235 138.55C36.7069 138.524 36.7902 138.508 36.8735 138.508Z" fill="#F4EDE2"/>
<path d="M53.93 138.82C54.1644 139.169 54.1644 139.503 53.93 139.82C53.6644 140.169 53.3883 140.404 53.0967 140.529C52.2217 140.93 51.2633 141.159 50.2217 141.216C48.6644 141.102 47.3988 140.602 46.43 139.695C45.1383 138.487 44.7425 136.919 45.2425 134.987C45.6019 133.544 46.4977 132.362 47.93 131.445C48.2633 131.237 48.6071 131.086 48.9717 130.987C49.331 130.878 49.6904 130.82 50.055 130.82C50.4717 130.82 50.8727 130.893 51.2633 131.029C51.6644 131.169 52.0342 131.372 52.3675 131.633C52.6175 131.841 52.7946 132.065 52.9092 132.299C53.0029 132.523 52.9977 132.727 52.8883 132.904C52.7477 133.07 52.555 133.143 52.305 133.112C52.1071 133.086 51.8935 133.023 51.6592 132.924C50.8102 132.591 50.055 132.56 49.3883 132.82C48.7321 133.07 48.1227 133.648 47.555 134.549C47.4404 134.747 47.3519 134.956 47.2842 135.174C47.2269 135.398 47.18 135.602 47.1383 135.779C47.0238 136.362 47.1019 136.914 47.3675 137.424C47.6435 137.924 48.0654 138.31 48.6383 138.57C49.081 138.794 49.5185 138.924 49.9508 138.966C50.3779 138.997 50.7894 138.977 51.18 138.904C51.581 138.836 51.9613 138.737 52.3258 138.612C52.4196 138.586 52.5342 138.549 52.6592 138.508C52.7946 138.466 52.9196 138.44 53.0342 138.424C53.4196 138.383 53.7217 138.518 53.93 138.82Z" fill="#F4EDE2"/>
<path d="M65.938 131.57C66.4901 131.711 67.0005 131.878 67.4588 132.07C67.9172 132.268 68.313 132.524 68.6463 132.841C68.9797 133.164 69.2401 133.565 69.438 134.05C69.6463 134.524 69.7713 135.102 69.813 135.779C69.714 136.878 69.4015 137.753 68.8755 138.404C68.7609 138.518 68.6567 138.633 68.563 138.758C68.464 138.872 68.3599 138.987 68.2505 139.112L68.0213 139.383C67.2297 140.3 66.1984 140.685 64.938 140.529C64.839 140.518 64.7401 140.503 64.6463 140.487C64.563 140.477 64.4797 140.461 64.3963 140.445L64.3547 140.425C63.1724 140.19 62.3026 139.581 61.7505 138.591C61.4276 138.05 61.2349 137.445 61.1672 136.779C61.1099 136.102 61.188 135.466 61.3963 134.883C62.063 132.956 63.339 131.862 65.2297 131.612L65.3547 131.591C65.4224 131.581 65.4849 131.57 65.5422 131.57C65.6099 131.56 65.6776 131.55 65.7505 131.55C65.8182 131.55 65.8807 131.56 65.938 131.57ZM67.5838 135.987L67.6047 135.945V135.904C67.5474 135.461 67.4276 135.122 67.2505 134.883C67.0682 134.633 66.7922 134.435 66.4172 134.279C66.0526 134.143 65.7505 134.003 65.5005 133.862C65.1359 133.685 64.8338 133.628 64.5838 133.695C64.3338 133.753 64.0942 133.94 63.8755 134.258C63.2088 135.247 63.0474 136.211 63.3963 137.154C63.5057 137.461 63.688 137.727 63.938 137.945C64.188 138.154 64.4692 138.294 64.7922 138.362C64.9172 138.378 65.0422 138.383 65.1672 138.383C65.6776 138.383 66.1099 138.19 66.4588 137.8C66.4849 137.774 66.5109 137.747 66.5422 137.716C66.5838 137.69 66.6099 137.664 66.6255 137.633C66.7088 137.55 66.7817 137.477 66.8547 137.404C66.9224 137.32 66.9849 137.232 67.0422 137.133C67.1099 137.008 67.1776 136.878 67.2505 136.737C67.3182 136.602 67.3807 136.461 67.438 136.32C67.4484 136.268 67.4692 136.211 67.5005 136.154C67.5265 136.102 67.5526 136.044 67.5838 135.987Z" fill="#F4EDE2"/>
<path d="M92.7299 137.779C92.8809 138.362 92.8393 138.883 92.6049 139.341C92.3653 139.8 91.9799 140.122 91.4382 140.3C90.8237 140.508 90.0945 140.628 89.2507 140.654C88.8601 140.685 88.5112 140.602 88.2091 140.404C87.9174 140.211 87.6778 140.018 87.5007 139.82C87.3028 139.602 87.1778 139.362 87.1257 139.112C87.0841 138.852 87.1257 138.612 87.2507 138.404C87.4434 138.07 87.7716 137.904 88.2299 137.904C88.3549 137.904 88.4695 137.914 88.5841 137.925C88.6362 137.956 88.6934 137.977 88.7507 137.987C88.8028 137.987 88.8601 138.003 88.9174 138.029C89.1362 138.086 89.3601 138.133 89.5841 138.175C89.8184 138.216 90.0632 138.206 90.3132 138.133L90.7091 138.008L90.6674 137.883C90.5528 137.622 90.4018 137.435 90.2091 137.32C90.0112 137.195 89.8028 137.102 89.5841 137.029C88.7351 136.779 87.9695 136.315 87.2924 135.633C86.7924 135.122 86.5632 134.55 86.6049 133.925C86.6309 133.3 86.9174 132.768 87.4591 132.32C88.4695 131.487 89.6153 131.227 90.8966 131.529C91.4799 131.669 91.907 131.961 92.1882 132.404C92.282 132.602 92.3445 132.8 92.3757 133.008C92.3757 133.081 92.3601 133.154 92.3341 133.237C92.3184 133.32 92.282 133.383 92.2299 133.425C92.1309 133.497 91.9799 133.487 91.7716 133.404C91.532 133.31 91.2351 133.216 90.8757 133.133C90.5268 133.05 90.1518 133.05 89.7507 133.133C89.5684 133.175 89.3862 133.237 89.2091 133.32C89.0424 133.404 88.8809 133.497 88.7299 133.591C88.5632 133.69 88.4799 133.815 88.4799 133.966C88.4799 134.122 88.5528 134.253 88.7091 134.362L88.9799 134.508C89.1987 134.648 89.4226 134.779 89.6466 134.904C89.8809 135.029 90.1153 135.143 90.3549 135.237C91.657 135.768 92.4487 136.612 92.7299 137.779Z" fill="#F4EDE2"/>
<path d="M108.797 138.82C109.031 139.169 109.031 139.503 108.797 139.82C108.531 140.169 108.255 140.404 107.963 140.529C107.088 140.93 106.13 141.159 105.088 141.216C103.531 141.102 102.265 140.602 101.297 139.695C100.005 138.487 99.6092 136.919 100.109 134.987C100.469 133.544 101.364 132.362 102.797 131.445C103.13 131.237 103.474 131.086 103.838 130.987C104.198 130.878 104.557 130.82 104.922 130.82C105.338 130.82 105.739 130.893 106.13 131.029C106.531 131.169 106.901 131.372 107.234 131.633C107.484 131.841 107.661 132.065 107.776 132.299C107.87 132.523 107.864 132.727 107.755 132.904C107.614 133.07 107.422 133.143 107.172 133.112C106.974 133.086 106.76 133.023 106.526 132.924C105.677 132.591 104.922 132.56 104.255 132.82C103.599 133.07 102.989 133.648 102.422 134.549C102.307 134.747 102.219 134.956 102.151 135.174C102.094 135.398 102.047 135.602 102.005 135.779C101.89 136.362 101.969 136.914 102.234 137.424C102.51 137.924 102.932 138.31 103.505 138.57C103.948 138.794 104.385 138.924 104.818 138.966C105.245 138.997 105.656 138.977 106.047 138.904C106.448 138.836 106.828 138.737 107.193 138.612C107.286 138.586 107.401 138.549 107.526 138.508C107.661 138.466 107.786 138.44 107.901 138.424C108.286 138.383 108.588 138.518 108.797 138.82Z" fill="#F4EDE2"/>
<path d="M124.055 139.612C124.065 139.961 124.044 140.273 123.992 140.549C123.893 140.924 123.648 141.133 123.263 141.174C122.888 141.227 122.607 141.081 122.43 140.737C122.263 140.435 122.164 140.128 122.138 139.82C122.107 139.529 122.086 139.232 122.075 138.924C122.075 138.607 122.065 138.294 122.055 137.987C122.055 137.878 122.044 137.768 122.034 137.654C122.034 137.544 122.034 137.435 122.034 137.32C122.034 137.268 122.034 137.211 122.034 137.154C122.034 137.102 122.034 137.049 122.034 137.008V136.695H117.846V137.008C117.846 137.065 117.846 137.122 117.846 137.174C117.846 137.216 117.846 137.268 117.846 137.32V138.174C117.846 138.424 117.846 138.674 117.846 138.924C117.846 139.174 117.846 139.424 117.846 139.674V139.716C117.857 139.799 117.857 139.883 117.846 139.966C117.846 140.039 117.846 140.112 117.846 140.195C117.815 140.445 117.732 140.648 117.596 140.799C117.471 140.951 117.31 141.029 117.117 141.029C116.909 141.029 116.732 140.951 116.596 140.799C116.471 140.664 116.393 140.477 116.367 140.237C116.294 139.003 116.232 137.862 116.18 136.82C116.122 135.779 116.075 134.794 116.034 133.862C116.018 133.643 116.034 133.414 116.075 133.174C116.117 132.924 116.159 132.695 116.2 132.487C116.242 132.279 116.331 132.112 116.471 131.987C116.607 131.862 116.773 131.81 116.971 131.82C117.148 131.836 117.294 131.904 117.409 132.029C117.534 132.154 117.607 132.331 117.638 132.549C117.664 132.773 117.685 133.003 117.7 133.237C117.711 133.477 117.726 133.706 117.742 133.924C117.753 134.023 117.763 134.122 117.763 134.216C117.773 134.315 117.784 134.414 117.784 134.508L117.825 135.049H122.013L122.034 134.404C122.06 134.195 122.075 134.003 122.075 133.82C122.086 133.643 122.101 133.456 122.117 133.258C122.117 133.091 122.122 132.924 122.138 132.758C122.148 132.581 122.169 132.398 122.2 132.216C122.226 132.049 122.284 131.893 122.367 131.737C122.419 131.643 122.497 131.56 122.596 131.487C122.69 131.404 122.831 131.372 123.013 131.383C123.289 131.414 123.461 131.56 123.534 131.82C123.617 132.143 123.664 132.482 123.68 132.841C123.747 134.081 123.815 135.258 123.888 136.383C123.956 137.497 124.013 138.57 124.055 139.612Z" fill="#F4EDE2"/>
<path d="M135.906 131.57C136.458 131.711 136.968 131.878 137.427 132.07C137.885 132.268 138.281 132.524 138.614 132.841C138.947 133.164 139.208 133.565 139.406 134.05C139.614 134.524 139.739 135.102 139.781 135.779C139.682 136.878 139.369 137.753 138.843 138.404C138.729 138.518 138.625 138.633 138.531 138.758C138.432 138.872 138.328 138.987 138.218 139.112L137.989 139.383C137.197 140.3 136.166 140.685 134.906 140.529C134.807 140.518 134.708 140.503 134.614 140.487C134.531 140.477 134.447 140.461 134.364 140.445L134.322 140.425C133.14 140.19 132.27 139.581 131.718 138.591C131.395 138.05 131.203 137.445 131.135 136.779C131.078 136.102 131.156 135.466 131.364 134.883C132.031 132.956 133.307 131.862 135.197 131.612L135.322 131.591C135.39 131.581 135.453 131.57 135.51 131.57C135.578 131.56 135.645 131.55 135.718 131.55C135.786 131.55 135.848 131.56 135.906 131.57ZM137.552 135.987L137.572 135.945V135.904C137.515 135.461 137.395 135.122 137.218 134.883C137.036 134.633 136.76 134.435 136.385 134.279C136.02 134.143 135.718 134.003 135.468 133.862C135.104 133.685 134.802 133.628 134.552 133.695C134.302 133.753 134.062 133.94 133.843 134.258C133.177 135.247 133.015 136.211 133.364 137.154C133.473 137.461 133.656 137.727 133.906 137.945C134.156 138.154 134.437 138.294 134.76 138.362C134.885 138.378 135.01 138.383 135.135 138.383C135.645 138.383 136.078 138.19 136.427 137.8C136.453 137.774 136.479 137.747 136.51 137.716C136.552 137.69 136.578 137.664 136.593 137.633C136.677 137.55 136.75 137.477 136.822 137.404C136.89 137.32 136.953 137.232 137.01 137.133C137.078 137.008 137.145 136.878 137.218 136.737C137.286 136.602 137.348 136.461 137.406 136.32C137.416 136.268 137.437 136.211 137.468 136.154C137.494 136.102 137.52 136.044 137.552 135.987Z" fill="#F4EDE2"/>
<path d="M151.646 131.57C152.198 131.711 152.708 131.878 153.166 132.07C153.625 132.268 154.021 132.524 154.354 132.841C154.687 133.164 154.948 133.565 155.146 134.05C155.354 134.524 155.479 135.102 155.521 135.779C155.422 136.878 155.109 137.753 154.583 138.404C154.468 138.518 154.364 138.633 154.271 138.758C154.172 138.872 154.067 138.987 153.958 139.112L153.729 139.383C152.937 140.3 151.906 140.685 150.646 140.529C150.547 140.518 150.448 140.503 150.354 140.487C150.271 140.477 150.187 140.461 150.104 140.445L150.062 140.425C148.88 140.19 148.01 139.581 147.458 138.591C147.135 138.05 146.942 137.445 146.875 136.779C146.817 136.102 146.896 135.466 147.104 134.883C147.771 132.956 149.047 131.862 150.937 131.612L151.062 131.591C151.13 131.581 151.192 131.57 151.25 131.57C151.317 131.56 151.385 131.55 151.458 131.55C151.526 131.55 151.588 131.56 151.646 131.57ZM153.291 135.987L153.312 135.945V135.904C153.255 135.461 153.135 135.122 152.958 134.883C152.776 134.633 152.5 134.435 152.125 134.279C151.76 134.143 151.458 134.003 151.208 133.862C150.843 133.685 150.541 133.628 150.291 133.695C150.041 133.753 149.802 133.94 149.583 134.258C148.916 135.247 148.755 136.211 149.104 137.154C149.213 137.461 149.396 137.727 149.646 137.945C149.896 138.154 150.177 138.294 150.5 138.362C150.625 138.378 150.75 138.383 150.875 138.383C151.385 138.383 151.817 138.19 152.166 137.8C152.192 137.774 152.218 137.747 152.25 137.716C152.291 137.69 152.317 137.664 152.333 137.633C152.416 137.55 152.489 137.477 152.562 137.404C152.63 137.32 152.692 137.232 152.75 137.133C152.817 137.008 152.885 136.878 152.958 136.737C153.026 136.602 153.088 136.461 153.146 136.32C153.156 136.268 153.177 136.211 153.208 136.154C153.234 136.102 153.26 136.044 153.291 135.987Z" fill="#F4EDE2"/>
<path d="M168.052 138.925C168.162 139.206 168.12 139.482 167.927 139.758C167.912 139.789 167.891 139.815 167.865 139.841C167.849 139.872 167.828 139.893 167.802 139.904C166.521 140.831 165.292 141.096 164.115 140.695C163.781 140.586 163.511 140.435 163.302 140.237C163.104 140.029 162.953 139.81 162.844 139.57C162.745 139.336 162.682 139.107 162.656 138.883C162.625 138.649 162.615 138.44 162.615 138.258C162.641 137.497 162.682 136.727 162.74 135.945C162.792 135.169 162.865 134.414 162.948 133.675L162.99 133.258C163 132.982 163.037 132.706 163.094 132.425C163.162 132.149 163.245 131.852 163.344 131.529C163.453 131.044 163.703 130.8 164.094 130.8C164.104 130.8 164.125 130.8 164.156 130.8C164.349 130.815 164.511 130.899 164.636 131.05C164.771 131.206 164.849 131.399 164.865 131.633C164.891 132.039 164.912 132.44 164.927 132.841C164.938 133.247 164.953 133.628 164.969 133.987C164.969 134.128 164.969 134.268 164.969 134.404C164.979 134.529 164.99 134.654 164.99 134.779C164.99 134.961 164.99 135.143 164.99 135.32C164.99 135.487 164.99 135.649 164.99 135.8C164.99 136.175 164.99 136.539 164.99 136.883C164.99 137.232 164.99 137.57 164.99 137.904C165 138.044 165.016 138.164 165.031 138.258C165.042 138.341 165.083 138.414 165.156 138.466C165.224 138.539 165.307 138.57 165.406 138.57C165.5 138.57 165.615 138.565 165.74 138.55C165.833 138.539 165.927 138.529 166.011 138.529C166.094 138.518 166.182 138.503 166.281 138.487C166.365 138.477 166.453 138.461 166.552 138.445C166.646 138.435 166.74 138.419 166.823 138.404C167.057 138.393 167.261 138.404 167.427 138.445C167.745 138.518 167.953 138.675 168.052 138.925Z" fill="#F4EDE2"/>
</svg>
