<svg width="480" height="360" viewBox="0 0 480 360" fill="none" xmlns="http://www.w3.org/2000/svg">
  <rect width="480" height="360" rx="36" fill="#f3f4f6"/>
  <rect x="48" y="50" width="384" height="260" rx="24" fill="#ffffff" stroke="#e2e8f0"/>
  <rect x="78" y="80" width="200" height="18" rx="9" fill="#111827"/>
  <rect x="78" y="108" width="140" height="10" rx="5" fill="#94a3b8"/>
  <rect x="78" y="140" width="130" height="70" rx="12" fill="#f8fafc" stroke="#e2e8f0"/>
  <rect x="90" y="158" width="90" height="12" rx="6" fill="#0f172a"/>
  <rect x="90" y="178" width="70" height="10" rx="5" fill="#94a3b8"/>
  <rect x="232" y="140" width="170" height="70" rx="12" fill="#f8fafc" stroke="#e2e8f0"/>
  <rect x="244" y="158" width="90" height="12" rx="6" fill="#0f172a"/>
  <rect x="244" y="178" width="70" height="10" rx="5" fill="#94a3b8"/>
  <rect x="78" y="230" width="324" height="50" rx="14" fill="#f8fafc" stroke="#e2e8f0"/>
  <rect x="96" y="250" width="130" height="12" rx="6" fill="#64748b"/>
  <rect x="250" y="250" width="120" height="12" rx="6" fill="#cbd5f5"/>
</svg>
