<svg width="257" height="148" viewBox="0 0 257 148" fill="none" xmlns="http://www.w3.org/2000/svg">
<path fill-rule="evenodd" clip-rule="evenodd" d="M0 73.7383C0 33.014 57.5314 0 128.5 0C199.469 0 257 33.014 257 73.7383C257 114.462 199.468 147.476 128.5 147.476C57.5316 147.476 0.000359297 114.462 0 73.7383ZM48 87.2812C48.0005 113.946 86.0561 135.562 133 135.562C179.944 135.562 218 113.946 218 87.2813C218 60.6165 179.944 39 133 39C86.0558 39 48 60.6165 48 87.2812Z" fill="#1A1A1A"/>
<ellipse cx="140.995" cy="95.9196" rx="30" ry="56.5" transform="rotate(-93.0036 140.995 95.9196)" fill="#1A1A1A"/>
</svg>
